<svg id="Layer_1" data-name="Layer 1" xmlns="http://www.w3.org/2000/svg" xmlns:xlink="http://www.w3.org/1999/xlink" viewBox="0 0 510.6 511.93"><defs><style>.cls-1{fill:url(#linear-gradient);}.cls-2{fill:#fff;}.cls-3{fill:#787ff6;}.cls-4{fill:none;stroke:#fff;stroke-linecap:round;stroke-linejoin:round;stroke-width:2.31px;}</style><linearGradient id="linear-gradient" x1="-3.77" y1="254.52" x2="471" y2="257.98" gradientUnits="userSpaceOnUse"><stop offset="0" stop-color="#4adede"/><stop offset="1" stop-color="#787ff6"/><stop offset="1" stop-color="#7883f6"/></linearGradient></defs><ellipse class="cls-1" cx="194" cy="255.96" rx="194" ry="255.96"/><polygon class="cls-2" points="144.94 159.74 87.4 159.74 36.42 255.96 87.4 352.19 144.94 352.19 93.97 255.96 144.94 159.74"/><polygon class="cls-3" points="388 159.74 453.01 159.74 510.6 255.96 453.01 352.19 388 352.19 445.58 255.96 388 159.74"/><path class="cls-4" d="M205.67,372.69c0,13.28-8.16,24-18.22,24s-18.22-10.76-18.22-24,8.15-24,18.22-24S205.67,359.41,205.67,372.69Z" transform="translate(-1.4)"/><polyline class="cls-4" points="384.69 335.13 268 335.13 239.54 372.69 204.26 372.69"/><polyline class="cls-4" points="370.27 376.29 281.09 376.29 257.3 407.67"/><line class="cls-4" x1="320.6" y1="414.73" x2="349.91" y2="414.73"/><path class="cls-4" d="M263.57,424c0,13.28-8.16,24-18.22,24s-18.22-10.76-18.22-24,8.16-24,18.22-24S263.57,410.71,263.57,424Z" transform="translate(-1.4)"/><path class="cls-4" d="M322,414.73c0,13.28-8.16,24-18.22,24s-18.22-10.76-18.22-24,8.15-24,18.22-24S322,401.45,322,414.73Z" transform="translate(-1.4)"/><path class="cls-4" d="M223.89,256c0,13.28-8.16,24-18.22,24s-18.22-10.76-18.22-24,8.15-24,18.22-24S223.89,242.68,223.89,256Z" transform="translate(-1.4)"/><path class="cls-4" d="M285.57,231.92c0,13.28-8.16,24-18.23,24s-18.22-10.76-18.22-24,8.16-24,18.22-24S285.57,218.64,285.57,231.92Z" transform="translate(-1.4)"/><path class="cls-4" d="M347.53,280c0,13.28-8.16,24.05-18.22,24.05S311.08,293.28,311.08,280s8.16-24,18.23-24S347.53,266.73,347.53,280Z" transform="translate(-1.4)"/><line class="cls-4" x1="388.93" y1="241.09" x2="349.09" y2="270.84"/><line class="cls-4" x1="306.73" y1="266.72" x2="287.11" y2="245.2"/><line class="cls-4" x1="246.91" y1="239.33" x2="223.3" y2="251.08"/><path class="cls-4" d="M205.67,137.81c0-13.28-8.16-24-18.22-24s-18.22,10.76-18.22,24,8.15,24,18.22,24S205.67,151.09,205.67,137.81Z" transform="translate(-1.4)"/><polyline class="cls-4" points="384.69 175.37 268 175.37 239.54 137.81 204.26 137.81"/><polyline class="cls-4" points="370.27 134.21 281.09 134.21 258.7 104.68"/><line class="cls-4" x1="320.6" y1="95.77" x2="352.88" y2="95.77"/><path class="cls-4" d="M263.57,86.51c0-13.28-8.16-24-18.22-24s-18.22,10.76-18.22,24,8.16,24,18.22,24S263.57,99.79,263.57,86.51Z" transform="translate(-1.4)"/><path class="cls-4" d="M322,95.77c0-13.28-8.16-24-18.22-24s-18.22,10.76-18.22,24,8.15,24,18.22,24S322,109.05,322,95.77Z" transform="translate(-1.4)"/></svg>